<svg width="250" height="413" viewBox="0 0 250 413" fill="none" xmlns="http://www.w3.org/2000/svg">
<path fill-rule="evenodd" clip-rule="evenodd" d="M0 0H54V52H250V106H54V288H54.0254C54.0254 297.321 55.8612 306.55 59.4281 315.161C62.9949 323.772 68.2228 331.596 74.8134 338.187C81.4041 344.777 89.2281 350.005 97.8392 353.572C106.45 357.139 115.679 358.975 125 358.975C134.321 358.975 143.55 357.139 152.161 353.572C160.772 350.005 168.596 344.777 175.187 338.187C181.777 331.596 187.005 323.772 190.572 315.161C194.139 306.55 195.975 297.321 195.975 288H196V248H250V288C250 304.415 246.767 320.67 240.485 335.835C234.203 351.001 224.996 364.781 213.388 376.388C201.781 387.996 188.001 397.203 172.835 403.485C157.67 409.767 141.415 413 125 413C108.585 413 92.3303 409.767 77.1646 403.485C61.9989 397.203 48.219 387.996 36.6117 376.388C25.0043 364.781 15.7969 351.001 9.51501 335.835C3.23328 320.67 0 304.415 0 288V106V52V0ZM223 221C237.912 221 250 208.912 250 194C250 179.088 237.912 167 223 167C208.088 167 196 179.088 196 194C196 208.912 208.088 221 223 221Z" fill="#4A7766"/>
</svg>
