<svg width="700" height="700" viewBox="0 0 700 700" fill="none" xmlns="http://www.w3.org/2000/svg">
<path d="M647.125 245.138C605.398 126.907 495.1 41.0393 364 35.3055V0.274883C510.642 6.04344 634.103 102.034 680.417 234.278L647.125 245.138Z" fill="#4A7766"/>
<path d="M651.487 258.441C660.275 287.415 665 318.156 665 350C665 523.97 523.97 665 350 665C176.03 665 35 523.97 35 350C35 176.03 176.03 35 350 35V0C156.7 0 0 156.7 0 350C0 543.3 156.7 700 350 700C543.3 700 700 543.3 700 350C700 314.366 694.675 279.976 684.777 247.581L651.487 258.441Z" fill="#4A7766"/>
<path d="M612.395 350C612.395 209.78 502.408 95.2484 364 87.9721V52.8236C521.805 60.134 647.5 190.388 647.5 350C647.5 410.541 629.416 466.858 598.356 513.844L569.366 494.031C596.568 452.686 612.395 403.191 612.395 350Z" fill="#4A7766"/>
<path d="M561.363 505.519C513.587 570.341 436.704 612.395 350 612.395C205.083 612.395 87.605 494.917 87.605 350C87.605 205.083 205.083 87.605 350 87.605V52.5C185.695 52.5 52.5 185.695 52.5 350C52.5 514.305 185.695 647.5 350 647.5C448.743 647.5 536.251 599.393 590.364 525.339L561.363 505.519Z" fill="#4A7766"/>
</svg>
