<svg width="1000" height="1000" viewBox="0 0 1000 1000" fill="none" xmlns="http://www.w3.org/2000/svg">
<rect width="1000" height="1000" rx="30" fill="white"/>
<path d="M797.125 395.138C755.398 276.907 645.1 191.039 514 185.306V150.275C660.642 156.043 784.103 252.034 830.417 384.278L797.125 395.138Z" fill="#4A7766"/>
<path d="M801.487 408.441C810.275 437.415 815 468.156 815 500C815 673.97 673.97 815 500 815C326.03 815 185 673.97 185 500C185 326.03 326.03 185 500 185V150C306.7 150 150 306.7 150 500C150 693.3 306.7 850 500 850C693.3 850 850 693.3 850 500C850 464.366 844.675 429.976 834.777 397.581L801.487 408.441Z" fill="#6C757D" fill-opacity="0.6"/>
<path d="M762.395 500C762.395 359.78 652.408 245.248 514 237.972V202.824C671.805 210.134 797.5 340.388 797.5 500C797.5 560.541 779.416 616.858 748.356 663.844L719.366 644.031C746.568 602.686 762.395 553.191 762.395 500Z" fill="#2F4858"/>
<path d="M711.363 655.519C663.587 720.341 586.704 762.395 500 762.395C355.083 762.395 237.605 644.917 237.605 500C237.605 355.083 355.083 237.605 500 237.605V202.5C335.695 202.5 202.5 335.695 202.5 500C202.5 664.305 335.695 797.5 500 797.5C598.743 797.5 686.251 749.393 740.364 675.339L711.363 655.519Z" fill="#6C757D" fill-opacity="0.6"/>
</svg>
